<svg id="visual" viewBox="0 0 900 600" width="900" height="600" xmlns="http://www.w3.org/2000/svg" xmlns:xlink="http://www.w3.org/1999/xlink" version="1.1"><rect x="0" y="0" width="900" height="600" fill="#001220"></rect><defs><linearGradient id="grad1_0" x1="33.3%" y1="100%" x2="100%" y2="0%"><stop offset="20%" stop-color="#21aaaf" stop-opacity="1"></stop><stop offset="80%" stop-color="#21aaaf" stop-opacity="1"></stop></linearGradient></defs><defs><linearGradient id="grad1_1" x1="33.3%" y1="100%" x2="100%" y2="0%"><stop offset="20%" stop-color="#21aaaf" stop-opacity="1"></stop><stop offset="80%" stop-color="#04586d" stop-opacity="1"></stop></linearGradient></defs><defs><linearGradient id="grad1_2" x1="33.3%" y1="100%" x2="100%" y2="0%"><stop offset="20%" stop-color="#001220" stop-opacity="1"></stop><stop offset="80%" stop-color="#04586d" stop-opacity="1"></stop></linearGradient></defs><defs><linearGradient id="grad2_0" x1="0%" y1="100%" x2="66.7%" y2="0%"><stop offset="20%" stop-color="#21aaaf" stop-opacity="1"></stop><stop offset="80%" stop-color="#21aaaf" stop-opacity="1"></stop></linearGradient></defs><defs><linearGradient id="grad2_1" x1="0%" y1="100%" x2="66.7%" y2="0%"><stop offset="20%" stop-color="#04586d" stop-opacity="1"></stop><stop offset="80%" stop-color="#21aaaf" stop-opacity="1"></stop></linearGradient></defs><defs><linearGradient id="grad2_2" x1="0%" y1="100%" x2="66.7%" y2="0%"><stop offset="20%" stop-color="#04586d" stop-opacity="1"></stop><stop offset="80%" stop-color="#001220" stop-opacity="1"></stop></linearGradient></defs><g transform="translate(900, 600)"><path d="M-432.7 0C-424.1 -80.4 -415.5 -160.8 -374.7 -216.3C-333.9 -271.8 -260.8 -302.4 -193 -334.3C-125.2 -366.2 -62.6 -399.4 0 -432.7L0 0Z" fill="#073346"></path><path d="M-288.4 0C-282.7 -53.6 -277 -107.2 -249.8 -144.2C-222.6 -181.2 -173.9 -201.6 -128.7 -222.9C-83.5 -244.1 -41.7 -266.3 0 -288.4L0 0Z" fill="#048090"></path><path d="M-144.2 0C-141.4 -26.8 -138.5 -53.6 -124.9 -72.1C-111.3 -90.6 -86.9 -100.8 -64.3 -111.4C-41.7 -122.1 -20.9 -133.1 0 -144.2L0 0Z" fill="#21aaaf"></path></g><g transform="translate(0, 0)"><path d="M432.7 0C406.8 66.9 381 133.7 348.1 201C315.3 268.3 275.5 336 216.3 374.7C157.1 413.4 78.6 423 0 432.7L0 0Z" fill="#073346"></path><path d="M288.4 0C271.2 44.6 254 89.1 232.1 134C210.2 178.9 183.7 224 144.2 249.8C104.8 275.6 52.4 282 0 288.4L0 0Z" fill="#048090"></path><path d="M144.2 0C135.6 22.3 127 44.6 116 67C105.1 89.4 91.8 112 72.1 124.9C52.4 137.8 26.2 141 0 144.2L0 0Z" fill="#21aaaf"></path></g></svg>