<svg id="visual" viewBox="0 0 900 600" width="900" height="600" xmlns="http://www.w3.org/2000/svg" xmlns:xlink="http://www.w3.org/1999/xlink" version="1.1"><rect x="0" y="0" width="900" height="600" fill="#111111"></rect><path d="M0 398L21.5 405.3C43 412.7 86 427.3 128.8 434.2C171.7 441 214.3 440 257.2 429.3C300 418.7 343 398.3 385.8 391C428.7 383.7 471.3 389.3 514.2 393.5C557 397.7 600 400.3 642.8 395.5C685.7 390.7 728.3 378.3 771.2 382.5C814 386.7 857 407.3 878.5 417.7L900 428L900 601L878.5 601C857 601 814 601 771.2 601C728.3 601 685.7 601 642.8 601C600 601 557 601 514.2 601C471.3 601 428.7 601 385.8 601C343 601 300 601 257.2 601C214.3 601 171.7 601 128.8 601C86 601 43 601 21.5 601L0 601Z" fill="#fa7268"></path><path d="M0 469L21.5 466.2C43 463.3 86 457.7 128.8 447.7C171.7 437.7 214.3 423.3 257.2 418C300 412.7 343 416.3 385.8 426.8C428.7 437.3 471.3 454.7 514.2 457.3C557 460 600 448 642.8 436.3C685.7 424.7 728.3 413.3 771.2 415C814 416.7 857 431.3 878.5 438.7L900 446L900 601L878.5 601C857 601 814 601 771.2 601C728.3 601 685.7 601 642.8 601C600 601 557 601 514.2 601C471.3 601 428.7 601 385.8 601C343 601 300 601 257.2 601C214.3 601 171.7 601 128.8 601C86 601 43 601 21.5 601L0 601Z" fill="#ef5f67"></path><path d="M0 491L21.5 490.8C43 490.7 86 490.3 128.8 492.8C171.7 495.3 214.3 500.7 257.2 496.5C300 492.3 343 478.7 385.8 469.8C428.7 461 471.3 457 514.2 459.3C557 461.7 600 470.3 642.8 475.5C685.7 480.7 728.3 482.3 771.2 475.7C814 469 857 454 878.5 446.5L900 439L900 601L878.5 601C857 601 814 601 771.2 601C728.3 601 685.7 601 642.8 601C600 601 557 601 514.2 601C471.3 601 428.7 601 385.8 601C343 601 300 601 257.2 601C214.3 601 171.7 601 128.8 601C86 601 43 601 21.5 601L0 601Z" fill="#e34c67"></path><path d="M0 487L21.5 494.2C43 501.3 86 515.7 128.8 523C171.7 530.3 214.3 530.7 257.2 523.3C300 516 343 501 385.8 492.8C428.7 484.7 471.3 483.3 514.2 483.2C557 483 600 484 642.8 486.8C685.7 489.7 728.3 494.3 771.2 498.8C814 503.3 857 507.7 878.5 509.8L900 512L900 601L878.5 601C857 601 814 601 771.2 601C728.3 601 685.7 601 642.8 601C600 601 557 601 514.2 601C471.3 601 428.7 601 385.8 601C343 601 300 601 257.2 601C214.3 601 171.7 601 128.8 601C86 601 43 601 21.5 601L0 601Z" fill="#d53867"></path><path d="M0 570L21.5 566.8C43 563.7 86 557.3 128.8 554C171.7 550.7 214.3 550.3 257.2 548.3C300 546.3 343 542.7 385.8 545C428.7 547.3 471.3 555.7 514.2 555.3C557 555 600 546 642.8 542C685.7 538 728.3 539 771.2 537.5C814 536 857 532 878.5 530L900 528L900 601L878.5 601C857 601 814 601 771.2 601C728.3 601 685.7 601 642.8 601C600 601 557 601 514.2 601C471.3 601 428.7 601 385.8 601C343 601 300 601 257.2 601C214.3 601 171.7 601 128.8 601C86 601 43 601 21.5 601L0 601Z" fill="#c62368"></path></svg>