<svg id="visual" viewBox="0 0 900 600" width="900" height="600" xmlns="http://www.w3.org/2000/svg" xmlns:xlink="http://www.w3.org/1999/xlink" version="1.1"><g stroke-width="1" stroke-linejoin="bevel"><path d="M460 314L539.5 288L472 187Z" fill="#154c5c" stroke="#154c5c"></path><path d="M539.5 288L575.5 191L472 187Z" fill="#00101c" stroke="#00101c"></path><path d="M472 187L354.5 199L460 314Z" fill="#123f4f" stroke="#123f4f"></path><path d="M542.5 83L421 99L472 187Z" fill="#29838c" stroke="#29838c"></path><path d="M472 187L421 99L354.5 199Z" fill="#123f4f" stroke="#123f4f"></path><path d="M362.5 423L454 419L460 314Z" fill="#1d6775" stroke="#1d6775"></path><path d="M460 314L584.5 391L539.5 288Z" fill="#1d6775" stroke="#1d6775"></path><path d="M454 419L584.5 391L460 314Z" fill="#00101c" stroke="#00101c"></path><path d="M539.5 288L662 202L575.5 191Z" fill="#123f4f" stroke="#123f4f"></path><path d="M354.5 199L322.5 323L460 314Z" fill="#123f4f" stroke="#123f4f"></path><path d="M575.5 191L542.5 83L472 187Z" fill="#329296" stroke="#329296"></path><path d="M684 293L662 202L539.5 288Z" fill="#29838c" stroke="#29838c"></path><path d="M575.5 191L669 125L542.5 83Z" fill="#185969" stroke="#185969"></path><path d="M584.5 391L684 293L539.5 288Z" fill="#29838c" stroke="#29838c"></path><path d="M322.5 323L362.5 423L460 314Z" fill="#081c28" stroke="#081c28"></path><path d="M785.5 215L669 125L662 202Z" fill="#329296" stroke="#329296"></path><path d="M662 202L669 125L575.5 191Z" fill="#00101c" stroke="#00101c"></path><path d="M317.5 0L332.5 78L421 99Z" fill="#1d6775" stroke="#1d6775"></path><path d="M421 99L332.5 78L354.5 199Z" fill="#123f4f" stroke="#123f4f"></path><path d="M354.5 199L235 287L322.5 323Z" fill="#1d6775" stroke="#1d6775"></path><path d="M362.5 423L459 486L454 419Z" fill="#081c28" stroke="#081c28"></path><path d="M454 419L589.5 486L584.5 391Z" fill="#123f4f" stroke="#123f4f"></path><path d="M233 197L235 287L354.5 199Z" fill="#081c28" stroke="#081c28"></path><path d="M231 392L311.5 472L362.5 423Z" fill="#29838c" stroke="#29838c"></path><path d="M542.5 83L471 0L421 99Z" fill="#00101c" stroke="#00101c"></path><path d="M571.5 0L471 0L542.5 83Z" fill="#123f4f" stroke="#123f4f"></path><path d="M459 486L589.5 486L454 419Z" fill="#081c28" stroke="#081c28"></path><path d="M584.5 391L701 417L684 293Z" fill="#154c5c" stroke="#154c5c"></path><path d="M332.5 78L233 197L354.5 199Z" fill="#154c5c" stroke="#154c5c"></path><path d="M654 0L571.5 0L542.5 83Z" fill="#154c5c" stroke="#154c5c"></path><path d="M649 496L701 417L584.5 391Z" fill="#0f3342" stroke="#0f3342"></path><path d="M684 293L785.5 215L662 202Z" fill="#154c5c" stroke="#154c5c"></path><path d="M362.5 423L311.5 472L459 486Z" fill="#0c2735" stroke="#0c2735"></path><path d="M231 392L362.5 423L322.5 323Z" fill="#329296" stroke="#329296"></path><path d="M130.5 408L231 392L235 287Z" fill="#123f4f" stroke="#123f4f"></path><path d="M235 287L231 392L322.5 323Z" fill="#227581" stroke="#227581"></path><path d="M701 417L771.5 307L684 293Z" fill="#29838c" stroke="#29838c"></path><path d="M587.5 600L649 496L589.5 486Z" fill="#329296" stroke="#329296"></path><path d="M589.5 486L649 496L584.5 391Z" fill="#0f3342" stroke="#0f3342"></path><path d="M332.5 78L238 85L233 197Z" fill="#227581" stroke="#227581"></path><path d="M317.5 0L238 85L332.5 78Z" fill="#185969" stroke="#185969"></path><path d="M471 0L317.5 0L421 99Z" fill="#329296" stroke="#329296"></path><path d="M771.5 307L785.5 215L684 293Z" fill="#00101c" stroke="#00101c"></path><path d="M669 125L654 0L542.5 83Z" fill="#185969" stroke="#185969"></path><path d="M808.5 112L654 0L669 125Z" fill="#0c2735" stroke="#0c2735"></path><path d="M231 392L249 476L311.5 472Z" fill="#0f3342" stroke="#0f3342"></path><path d="M363.5 600L435 600L459 486Z" fill="#0f3342" stroke="#0f3342"></path><path d="M459 486L587.5 600L589.5 486Z" fill="#1d6775" stroke="#1d6775"></path><path d="M701 417L799.5 396L771.5 307Z" fill="#329296" stroke="#329296"></path><path d="M900 302L900 227L785.5 215Z" fill="#0f3342" stroke="#0f3342"></path><path d="M764.5 487L799.5 396L701 417Z" fill="#154c5c" stroke="#154c5c"></path><path d="M363.5 600L459 486L311.5 472Z" fill="#154c5c" stroke="#154c5c"></path><path d="M900 124L808.5 112L785.5 215Z" fill="#29838c" stroke="#29838c"></path><path d="M785.5 215L808.5 112L669 125Z" fill="#0c2735" stroke="#0c2735"></path><path d="M317.5 0L229 0L238 85Z" fill="#29838c" stroke="#29838c"></path><path d="M96.5 298L235 287L233 197Z" fill="#185969" stroke="#185969"></path><path d="M96.5 298L130.5 408L235 287Z" fill="#123f4f" stroke="#123f4f"></path><path d="M435 600L587.5 600L459 486Z" fill="#329296" stroke="#329296"></path><path d="M649 496L764.5 487L701 417Z" fill="#0c2735" stroke="#0c2735"></path><path d="M702 600L764.5 487L649 496Z" fill="#081c28" stroke="#081c28"></path><path d="M236 600L363.5 600L311.5 472Z" fill="#123f4f" stroke="#123f4f"></path><path d="M231 392L130.5 408L249 476Z" fill="#081c28" stroke="#081c28"></path><path d="M249 476L236 600L311.5 472Z" fill="#081c28" stroke="#081c28"></path><path d="M96.5 298L233 197L88.5 200Z" fill="#154c5c" stroke="#154c5c"></path><path d="M88.5 200L233 197L238 85Z" fill="#1d6775" stroke="#1d6775"></path><path d="M84.5 76L88.5 200L238 85Z" fill="#185969" stroke="#185969"></path><path d="M587.5 600L702 600L649 496Z" fill="#081c28" stroke="#081c28"></path><path d="M900 0L815.5 0L808.5 112Z" fill="#081c28" stroke="#081c28"></path><path d="M808.5 112L815.5 0L654 0Z" fill="#185969" stroke="#185969"></path><path d="M900 302L785.5 215L771.5 307Z" fill="#0f3342" stroke="#0f3342"></path><path d="M900 302L771.5 307L799.5 396Z" fill="#227581" stroke="#227581"></path><path d="M900 371L799.5 396L900 514Z" fill="#0f3342" stroke="#0f3342"></path><path d="M900 371L900 302L799.5 396Z" fill="#154c5c" stroke="#154c5c"></path><path d="M105.5 476L236 600L249 476Z" fill="#0c2735" stroke="#0c2735"></path><path d="M900 514L799.5 396L764.5 487Z" fill="#1d6775" stroke="#1d6775"></path><path d="M900 227L900 124L785.5 215Z" fill="#1d6775" stroke="#1d6775"></path><path d="M121.5 0L84.5 76L238 85Z" fill="#081c28" stroke="#081c28"></path><path d="M0 425L105.5 476L130.5 408Z" fill="#081c28" stroke="#081c28"></path><path d="M130.5 408L105.5 476L249 476Z" fill="#329296" stroke="#329296"></path><path d="M0 322L130.5 408L96.5 298Z" fill="#329296" stroke="#329296"></path><path d="M229 0L121.5 0L238 85Z" fill="#081c28" stroke="#081c28"></path><path d="M702 600L804.5 600L764.5 487Z" fill="#1d6775" stroke="#1d6775"></path><path d="M0 100L88.5 200L84.5 76Z" fill="#123f4f" stroke="#123f4f"></path><path d="M0 100L0 218L88.5 200Z" fill="#29838c" stroke="#29838c"></path><path d="M88.5 200L0 218L96.5 298Z" fill="#0c2735" stroke="#0c2735"></path><path d="M900 124L900 0L808.5 112Z" fill="#00101c" stroke="#00101c"></path><path d="M0 218L0 322L96.5 298Z" fill="#00101c" stroke="#00101c"></path><path d="M804.5 600L900 514L764.5 487Z" fill="#00101c" stroke="#00101c"></path><path d="M0 0L0 100L84.5 76Z" fill="#185969" stroke="#185969"></path><path d="M0 322L0 425L130.5 408Z" fill="#0c2735" stroke="#0c2735"></path><path d="M105.5 476L88.5 600L236 600Z" fill="#227581" stroke="#227581"></path><path d="M0 521L88.5 600L105.5 476Z" fill="#154c5c" stroke="#154c5c"></path><path d="M804.5 600L900 600L900 514Z" fill="#1d6775" stroke="#1d6775"></path><path d="M121.5 0L0 0L84.5 76Z" fill="#1d6775" stroke="#1d6775"></path><path d="M0 425L0 521L105.5 476Z" fill="#081c28" stroke="#081c28"></path><path d="M0 521L0 600L88.5 600Z" fill="#154c5c" stroke="#154c5c"></path></g></svg>