<svg id="visual" viewBox="0 0 900 600" width="900" height="600" xmlns="http://www.w3.org/2000/svg" xmlns:xlink="http://www.w3.org/1999/xlink" version="1.1"><rect x="0" y="0" width="900" height="600" fill="#111111"></rect><path d="M0 162L16.7 168C33.3 174 66.7 186 100 176.8C133.3 167.7 166.7 137.3 200 125.5C233.3 113.7 266.7 120.3 300 131C333.3 141.7 366.7 156.3 400 152C433.3 147.7 466.7 124.3 500 111.3C533.3 98.3 566.7 95.7 600 102.5C633.3 109.3 666.7 125.7 700 142C733.3 158.3 766.7 174.7 800 168.7C833.3 162.7 866.7 134.3 883.3 120.2L900 106L900 0L883.3 0C866.7 0 833.3 0 800 0C766.7 0 733.3 0 700 0C666.7 0 633.3 0 600 0C566.7 0 533.3 0 500 0C466.7 0 433.3 0 400 0C366.7 0 333.3 0 300 0C266.7 0 233.3 0 200 0C166.7 0 133.3 0 100 0C66.7 0 33.3 0 16.7 0L0 0Z" fill="#21aaaf"></path><path d="M0 122L16.7 127C33.3 132 66.7 142 100 139.8C133.3 137.7 166.7 123.3 200 114.2C233.3 105 266.7 101 300 104.7C333.3 108.3 366.7 119.7 400 132.7C433.3 145.7 466.7 160.3 500 166.8C533.3 173.3 566.7 171.7 600 165.7C633.3 159.7 666.7 149.3 700 142.2C733.3 135 766.7 131 800 127.8C833.3 124.7 866.7 122.3 883.3 121.2L900 120L900 0L883.3 0C866.7 0 833.3 0 800 0C766.7 0 733.3 0 700 0C666.7 0 633.3 0 600 0C566.7 0 533.3 0 500 0C466.7 0 433.3 0 400 0C366.7 0 333.3 0 300 0C266.7 0 233.3 0 200 0C166.7 0 133.3 0 100 0C66.7 0 33.3 0 16.7 0L0 0Z" fill="#008ba8"></path><path d="M0 62L16.7 60.3C33.3 58.7 66.7 55.3 100 59.3C133.3 63.3 166.7 74.7 200 76.7C233.3 78.7 266.7 71.3 300 80.2C333.3 89 366.7 114 400 112.7C433.3 111.3 466.7 83.7 500 83.7C533.3 83.7 566.7 111.3 600 118.8C633.3 126.3 666.7 113.7 700 108.2C733.3 102.7 766.7 104.3 800 101.5C833.3 98.7 866.7 91.3 883.3 87.7L900 84L900 0L883.3 0C866.7 0 833.3 0 800 0C766.7 0 733.3 0 700 0C666.7 0 633.3 0 600 0C566.7 0 533.3 0 500 0C466.7 0 433.3 0 400 0C366.7 0 333.3 0 300 0C266.7 0 233.3 0 200 0C166.7 0 133.3 0 100 0C66.7 0 33.3 0 16.7 0L0 0Z" fill="#006c97"></path><path d="M0 61L16.7 63.7C33.3 66.3 66.7 71.7 100 71.8C133.3 72 166.7 67 200 61.2C233.3 55.3 266.7 48.7 300 46C333.3 43.3 366.7 44.7 400 47.8C433.3 51 466.7 56 500 64C533.3 72 566.7 83 600 78.8C633.3 74.7 666.7 55.3 700 45.2C733.3 35 766.7 34 800 37.5C833.3 41 866.7 49 883.3 53L900 57L900 0L883.3 0C866.7 0 833.3 0 800 0C766.7 0 733.3 0 700 0C666.7 0 633.3 0 600 0C566.7 0 533.3 0 500 0C466.7 0 433.3 0 400 0C366.7 0 333.3 0 300 0C266.7 0 233.3 0 200 0C166.7 0 133.3 0 100 0C66.7 0 33.3 0 16.7 0L0 0Z" fill="#034d7f"></path><path d="M0 59L16.7 52.7C33.3 46.3 66.7 33.7 100 29.8C133.3 26 166.7 31 200 32.5C233.3 34 266.7 32 300 30.7C333.3 29.3 366.7 28.7 400 32.5C433.3 36.3 466.7 44.7 500 48.3C533.3 52 566.7 51 600 46.3C633.3 41.7 666.7 33.3 700 30.5C733.3 27.7 766.7 30.3 800 32.3C833.3 34.3 866.7 35.7 883.3 36.3L900 37L900 0L883.3 0C866.7 0 833.3 0 800 0C766.7 0 733.3 0 700 0C666.7 0 633.3 0 600 0C566.7 0 533.3 0 500 0C466.7 0 433.3 0 400 0C366.7 0 333.3 0 300 0C266.7 0 233.3 0 200 0C166.7 0 133.3 0 100 0C66.7 0 33.3 0 16.7 0L0 0Z" fill="#162e63"></path></svg>