<svg id="visual" viewBox="0 0 900 600" width="900" height="600" xmlns="http://www.w3.org/2000/svg" xmlns:xlink="http://www.w3.org/1999/xlink" version="1.1"><rect x="0" y="0" width="900" height="600" fill="#111111"></rect><path d="M0 436L16.7 430C33.3 424 66.7 412 100 421.2C133.3 430.3 166.7 460.7 200 472.5C233.3 484.3 266.7 477.7 300 467C333.3 456.3 366.7 441.7 400 446C433.3 450.3 466.7 473.7 500 486.7C533.3 499.7 566.7 502.3 600 495.5C633.3 488.7 666.7 472.3 700 456C733.3 439.7 766.7 423.3 800 429.3C833.3 435.3 866.7 463.7 883.3 477.8L900 492L900 601L883.3 601C866.7 601 833.3 601 800 601C766.7 601 733.3 601 700 601C666.7 601 633.3 601 600 601C566.7 601 533.3 601 500 601C466.7 601 433.3 601 400 601C366.7 601 333.3 601 300 601C266.7 601 233.3 601 200 601C166.7 601 133.3 601 100 601C66.7 601 33.3 601 16.7 601L0 601Z" fill="#21aaaf"></path><path d="M0 476L16.7 471C33.3 466 66.7 456 100 458.2C133.3 460.3 166.7 474.7 200 483.8C233.3 493 266.7 497 300 493.3C333.3 489.7 366.7 478.3 400 465.3C433.3 452.3 466.7 437.7 500 431.2C533.3 424.7 566.7 426.3 600 432.3C633.3 438.3 666.7 448.7 700 455.8C733.3 463 766.7 467 800 470.2C833.3 473.3 866.7 475.7 883.3 476.8L900 478L900 601L883.3 601C866.7 601 833.3 601 800 601C766.7 601 733.3 601 700 601C666.7 601 633.3 601 600 601C566.7 601 533.3 601 500 601C466.7 601 433.3 601 400 601C366.7 601 333.3 601 300 601C266.7 601 233.3 601 200 601C166.7 601 133.3 601 100 601C66.7 601 33.3 601 16.7 601L0 601Z" fill="#008ba8"></path><path d="M0 536L16.7 537.7C33.3 539.3 66.7 542.7 100 538.7C133.3 534.7 166.7 523.3 200 521.3C233.3 519.3 266.7 526.7 300 517.8C333.3 509 366.7 484 400 485.3C433.3 486.7 466.7 514.3 500 514.3C533.3 514.3 566.7 486.7 600 479.2C633.3 471.7 666.7 484.3 700 489.8C733.3 495.3 766.7 493.7 800 496.5C833.3 499.3 866.7 506.7 883.3 510.3L900 514L900 601L883.3 601C866.7 601 833.3 601 800 601C766.7 601 733.3 601 700 601C666.7 601 633.3 601 600 601C566.7 601 533.3 601 500 601C466.7 601 433.3 601 400 601C366.7 601 333.3 601 300 601C266.7 601 233.3 601 200 601C166.7 601 133.3 601 100 601C66.7 601 33.3 601 16.7 601L0 601Z" fill="#006c97"></path><path d="M0 537L16.7 534.3C33.3 531.7 66.7 526.3 100 526.2C133.3 526 166.7 531 200 536.8C233.3 542.7 266.7 549.3 300 552C333.3 554.7 366.7 553.3 400 550.2C433.3 547 466.7 542 500 534C533.3 526 566.7 515 600 519.2C633.3 523.3 666.7 542.7 700 552.8C733.3 563 766.7 564 800 560.5C833.3 557 866.7 549 883.3 545L900 541L900 601L883.3 601C866.7 601 833.3 601 800 601C766.7 601 733.3 601 700 601C666.7 601 633.3 601 600 601C566.7 601 533.3 601 500 601C466.7 601 433.3 601 400 601C366.7 601 333.3 601 300 601C266.7 601 233.3 601 200 601C166.7 601 133.3 601 100 601C66.7 601 33.3 601 16.7 601L0 601Z" fill="#034d7f"></path><path d="M0 539L16.7 545.3C33.3 551.7 66.7 564.3 100 568.2C133.3 572 166.7 567 200 565.5C233.3 564 266.7 566 300 567.3C333.3 568.7 366.7 569.3 400 565.5C433.3 561.7 466.7 553.3 500 549.7C533.3 546 566.7 547 600 551.7C633.3 556.3 666.7 564.7 700 567.5C733.3 570.3 766.7 567.7 800 565.7C833.3 563.7 866.7 562.3 883.3 561.7L900 561L900 601L883.3 601C866.7 601 833.3 601 800 601C766.7 601 733.3 601 700 601C666.7 601 633.3 601 600 601C566.7 601 533.3 601 500 601C466.7 601 433.3 601 400 601C366.7 601 333.3 601 300 601C266.7 601 233.3 601 200 601C166.7 601 133.3 601 100 601C66.7 601 33.3 601 16.7 601L0 601Z" fill="#162e63"></path></svg>